<?xml version="1.0" standalone="no"?>
<!DOCTYPE svg PUBLIC "-//W3C//DTD SVG 20010904//EN"
 "http://www.w3.org/TR/2001/REC-SVG-20010904/DTD/svg10.dtd">
<svg version="1.0" xmlns="http://www.w3.org/2000/svg"
 width="500.000000pt" height="500.000000pt" viewBox="0 0 500.000000 500.000000"
 preserveAspectRatio="xMidYMid meet">

<g transform="translate(0.000000,500.000000) scale(0.100000,-0.100000)"
fill="#000000" stroke="none">
<path d="M2346 3659 c-30 -36 -33 -70 -8 -91 29 -25 53 -29 78 -13 31 20 33
71 3 80 -11 4 -23 4 -26 2 -8 -9 7 -27 23 -27 15 0 17 -9 8 -34 -13 -34 -94
-7 -94 32 0 25 52 72 80 72 34 0 80 -49 80 -87 0 -37 -30 -81 -64 -93 -16 -5
-27 -12 -24 -15 10 -10 55 14 76 40 20 26 21 26 32 6 12 -24 66 -54 83 -48 7
2 -5 11 -25 20 -44 18 -58 42 -58 96 0 76 89 109 133 49 17 -23 19 -33 11 -55
-12 -35 -61 -45 -81 -17 -18 25 -16 32 9 36 28 4 36 28 9 28 -11 0 -25 -9 -31
-20 -26 -48 30 -95 76 -65 44 28 49 52 20 96 -23 35 -31 39 -67 39 -32 0 -47
-6 -67 -28 l-27 -28 -23 28 c-34 41 -90 40 -126 -3z"/>
<path d="M1871 3567 c-15 -19 22 -57 54 -57 l25 0 -29 -41 c-17 -22 -32 -46
-34 -52 -2 -7 -25 -12 -58 -12 -47 0 -54 -2 -54 -20 0 -26 47 -32 81 -10 l24
15 0 -64 c0 -35 7 -82 15 -105 14 -41 8 -53 -14 -27 -13 15 -99 42 -107 33 -4
-3 7 -9 22 -13 44 -11 110 -49 162 -92 57 -48 115 -79 162 -88 48 -8 20 12
-38 27 -52 14 -135 86 -164 143 -13 24 -23 68 -26 108 -4 58 -1 75 22 121 36
75 88 108 176 114 55 4 72 1 110 -19 60 -32 93 -93 87 -161 -6 -67 -29 -90
-87 -84 -25 3 -57 8 -71 12 -31 8 -43 -12 -24 -39 19 -26 93 -25 137 2 45 28
63 64 62 126 0 60 -35 120 -86 151 -27 16 -30 20 -15 23 11 2 37 -10 58 -28
44 -35 105 -63 122 -57 7 3 3 8 -8 12 -47 18 -82 37 -115 61 -34 24 -39 25
-129 19 -51 -3 -104 -11 -118 -16 -39 -15 -77 -10 -96 11 -20 23 -30 25 -46 7z"/>
<path d="M3067 3553 c-36 -25 -37 -26 -79 -10 -24 8 -83 18 -131 22 -92 7
-108 3 -161 -46 -10 -10 -32 -21 -47 -24 -29 -7 -50 -25 -28 -25 16 0 109 51
109 60 0 10 57 33 70 28 7 -2 -6 -15 -27 -28 -69 -45 -103 -152 -69 -218 29
-55 62 -76 122 -76 54 -1 73 10 74 42 0 19 -30 27 -51 14 -32 -20 -103 -15
-125 9 -28 31 -26 124 4 166 43 61 79 78 162 78 65 0 81 -4 118 -28 131 -85
130 -283 -2 -405 -24 -23 -57 -44 -73 -48 -15 -4 -32 -10 -38 -14 -5 -4 -19
-10 -30 -13 -16 -4 -15 -5 6 -6 34 -1 109 39 173 93 28 24 71 53 96 64 99 43
99 43 60 36 -19 -4 -52 -15 -72 -25 -49 -25 -51 -24 -32 13 9 18 19 63 22 100
4 61 6 66 23 58 40 -22 94 -4 82 26 -4 11 -17 13 -53 8 l-49 -6 -34 53 -35 54
30 7 c43 9 59 36 35 56 -10 9 -22 5 -50 -15z"/>
<path d="M2038 3514 c-21 -9 -48 -33 -65 -57 -26 -38 -28 -50 -28 -132 0 -82
3 -94 28 -135 16 -25 46 -57 66 -72 48 -34 122 -54 148 -39 15 8 10 11 -27 11
-150 3 -255 185 -190 329 29 62 65 91 117 91 55 0 71 -7 88 -41 32 -61 11
-112 -52 -125 -37 -7 -65 17 -61 55 3 22 7 26 31 23 22 -3 27 1 27 17 0 16 -6
21 -28 21 -36 0 -52 -17 -52 -55 0 -78 88 -106 142 -46 38 43 37 82 -4 126
-39 43 -86 52 -140 29z"/>
<path d="M2855 3516 c-39 -17 -65 -56 -65 -99 0 -36 12 -55 50 -81 34 -22 57
-20 85 9 28 28 34 85 11 105 -20 15 -61 9 -61 -10 0 -10 12 -16 33 -18 26 -3
32 -8 32 -26 0 -54 -73 -74 -115 -31 -35 34 -33 75 5 115 28 30 34 32 81 28
85 -9 129 -72 129 -184 0 -128 -72 -215 -195 -239 -22 -4 -34 -10 -27 -12 7
-3 34 0 61 7 100 24 181 135 181 249 0 73 -43 150 -100 179 -51 25 -63 26
-105 8z"/>
<path d="M2448 3473 c-41 -10 -5 -44 53 -49 30 -3 41 0 46 12 12 32 -42 52
-99 37z"/>
<path d="M2407 3428 c-9 -33 -8 -118 1 -118 4 0 6 19 4 42 -4 32 0 45 14 55
16 12 17 15 2 29 -14 14 -16 13 -21 -8z"/>
<path d="M2558 3424 c-8 -15 3 -104 13 -104 11 0 11 67 0 94 -4 11 -10 15 -13
10z"/>
<path d="M2550 3284 c0 -20 -41 -104 -50 -104 -11 0 -36 33 -57 74 -11 21 -23
34 -26 29 -4 -6 4 -27 18 -47 14 -20 25 -42 25 -49 0 -25 -161 -97 -216 -97
-13 0 -26 -5 -30 -11 -19 -31 196 39 238 78 10 9 21 13 26 9 13 -14 -74 -83
-131 -105 -35 -13 -81 -21 -117 -21 -34 0 -62 -5 -66 -12 -5 -8 12 -10 67 -5
110 9 134 20 255 111 8 7 23 2 46 -16 54 -41 130 -75 193 -87 74 -14 118 -14
110 -1 -3 6 -28 10 -54 10 -65 0 -166 35 -223 77 -45 32 -60 53 -39 53 4 0 19
-8 32 -18 60 -45 255 -106 235 -73 -4 6 -20 11 -36 11 -37 0 -133 35 -187 68
l-41 26 18 36 c26 51 33 80 21 80 -6 0 -11 -7 -11 -16z"/>
<path d="M1574 3224 c-18 -6 -47 -23 -64 -38 -35 -29 -43 -31 -70 -16 -15 8
-24 6 -39 -7 -23 -19 -12 -33 27 -33 20 0 15 -7 -30 -49 -103 -95 -164 -134
-194 -124 -6 2 -14 -3 -17 -12 -6 -13 40 -15 424 -15 284 0 428 3 424 10 -4 6
-66 10 -153 10 -145 1 -147 1 -125 19 72 60 31 171 -62 171 -26 0 -75 -42 -75
-65 0 -21 38 -48 57 -40 17 6 17 7 -1 20 -10 8 -23 16 -28 17 -16 6 4 39 29
49 69 26 129 -53 93 -122 -14 -24 -61 -49 -96 -49 -65 0 -123 84 -109 157 13
73 65 113 146 113 23 0 39 3 35 8 -12 11 -135 8 -172 -4z m15 -36 c-51 -57
-53 -157 -3 -209 l28 -29 -100 0 c-95 0 -99 1 -101 23 -1 12 -5 38 -8 57 -6
34 -3 38 70 105 76 70 96 83 127 84 13 1 10 -6 -13 -31z m-217 -225 c8 -10 -2
-13 -47 -13 -32 0 -56 2 -53 5 3 3 23 19 44 35 38 28 39 29 42 7 2 -12 9 -28
14 -34z"/>
<path d="M3254 3229 c-3 -5 12 -9 33 -9 107 0 172 -102 129 -203 -26 -62 -97
-85 -157 -50 -51 30 -60 91 -21 136 19 21 85 23 102 2 15 -18 6 -45 -15 -45
-8 0 -15 -7 -15 -15 0 -25 39 -17 52 10 9 19 8 29 -5 48 -32 50 -114 42 -142
-14 -22 -41 -18 -74 11 -108 l26 -31 -141 0 c-82 0 -142 -4 -146 -10 -4 -7
140 -10 426 -10 374 0 430 2 419 14 -6 8 -17 13 -25 10 -16 -6 -71 20 -102 49
-13 11 -26 17 -30 13 -4 -4 -1 -11 8 -16 9 -5 27 -18 40 -29 l24 -20 -53 -1
c-34 0 -51 4 -47 10 4 6 10 24 15 40 8 26 4 34 -43 80 -50 48 -51 50 -25 50
34 0 42 13 20 33 -12 11 -22 13 -32 7 -26 -17 -48 -11 -85 21 -26 23 -48 33
-80 35 -25 2 -65 6 -90 8 -25 2 -48 0 -51 -5z m206 -42 c82 -70 140 -134 140
-152 0 -12 -6 -30 -14 -40 -8 -11 -12 -25 -9 -32 4 -10 -16 -13 -91 -13 l-95
0 24 36 c47 68 42 140 -13 206 l-27 31 30 -7 c17 -4 41 -17 55 -29z"/>
<path d="M973 3195 c-3 -9 3 -25 13 -36 14 -16 27 -20 52 -15 29 4 33 3 27
-12 -16 -40 -17 -78 -2 -91 13 -10 15 -9 10 8 -9 34 7 92 32 117 18 18 35 24
67 24 63 0 88 -21 88 -74 0 -50 -22 -76 -64 -76 -22 0 -27 4 -24 22 2 15 -3
24 -14 26 -23 4 -24 -30 -2 -48 22 -19 70 -16 94 5 11 10 22 32 26 50 16 88
-83 146 -161 95 -38 -25 -67 -25 -90 0 -22 24 -43 26 -52 5z"/>
<path d="M3759 3191 c-15 -11 -32 -34 -39 -51 -29 -70 64 -155 114 -104 20 20
21 54 1 54 -9 0 -15 -9 -15 -25 0 -21 -5 -25 -29 -25 -59 0 -82 80 -36 125 37
38 98 35 136 -6 28 -30 35 -55 30 -107 -1 -15 2 -21 8 -17 14 8 14 55 2 88 -9
24 -9 25 28 20 32 -4 41 -1 54 17 30 43 -5 68 -43 30 -24 -24 -63 -26 -85 -4
-27 27 -95 30 -126 5z"/>
<path d="M1376 3184 c-10 -25 -1 -27 19 -4 15 17 16 20 3 20 -9 0 -19 -7 -22
-16z"/>
<path d="M3600 3186 c0 -2 7 -9 15 -16 9 -7 15 -8 15 -2 0 5 -7 12 -15 16 -8
3 -15 4 -15 2z"/>
<path d="M1140 2960 c0 -6 7 -10 15 -10 8 0 15 2 15 4 0 2 -7 6 -15 10 -8 3
-15 1 -15 -4z"/>
<path d="M3840 2960 c-9 -6 -10 -10 -3 -10 6 0 15 5 18 10 8 12 4 12 -15 0z"/>
<path d="M690 2796 c0 -85 -4 -156 -8 -158 -12 -5 -54 -68 -45 -68 4 1 20 17
36 37 27 36 27 39 27 180 l0 143 221 0 c144 0 218 3 214 10 -4 6 -90 10 -226
10 l-219 0 0 -154z"/>
<path d="M2075 2940 c-4 -7 140 -10 425 -10 285 0 429 3 425 10 -4 6 -157 10
-425 10 -268 0 -421 -4 -425 -10z"/>
<path d="M3855 2940 c-4 -7 70 -10 214 -10 l221 0 0 -138 0 -139 31 -42 c17
-24 33 -40 36 -38 3 3 -7 21 -21 40 -25 33 -26 38 -26 185 l0 152 -224 0
c-139 0 -227 -4 -231 -10z"/>
<path d="M780 2745 l0 -124 -45 -48 c-24 -26 -45 -52 -44 -58 0 -5 22 15 49
45 l50 55 0 118 0 117 139 0 c83 0 142 4 146 10 4 6 -47 10 -144 10 l-151 0 0
-125z"/>
<path d="M1095 2860 c-4 -6 18 -10 60 -10 42 0 64 4 60 10 -3 6 -30 10 -60 10
-30 0 -57 -4 -60 -10z"/>
<path d="M1235 2860 c4 -6 138 -10 370 -10 232 0 366 4 370 10 4 7 -122 10
-370 10 -248 0 -374 -3 -370 -10z"/>
<path d="M1995 2860 c-4 -7 167 -10 505 -10 338 0 509 3 505 10 -4 6 -183 10
-505 10 -322 0 -501 -4 -505 -10z"/>
<path d="M3025 2860 c4 -7 153 -10 441 -10 261 1 432 5 429 10 -3 5 -188 10
-441 10 -296 0 -433 -3 -429 -10z"/>
<path d="M3920 2860 c8 -5 75 -10 148 -10 l132 0 0 -117 1 -118 50 -54 c27
-29 52 -51 54 -49 3 2 -16 26 -40 54 l-45 49 0 128 0 127 -157 0 c-106 0 -153
-4 -143 -10z"/>
<path d="M2172 2644 c-12 -8 -22 -25 -22 -37 0 -26 -10 -42 -30 -50 -12 -4
-11 -6 3 -6 15 -1 17 -13 17 -101 0 -129 18 -132 22 -3 3 94 4 97 28 104 l25
6 -25 4 c-21 3 -24 9 -22 34 4 34 16 45 52 45 20 0 22 2 10 10 -21 13 -32 12
-58 -6z"/>
<path d="M2335 2629 c-14 -17 -23 -34 -20 -37 6 -6 65 48 65 60 0 17 -19 7
-45 -23z"/>
<path d="M1210 2495 l0 -145 80 0 c47 0 80 4 80 10 0 6 -30 10 -70 10 l-70 0
0 135 c0 83 -4 135 -10 135 -6 0 -10 -55 -10 -145z"/>
<path d="M2760 2626 c0 -8 4 -17 9 -20 10 -7 23 19 14 28 -11 11 -23 6 -23 -8z"/>
<path d="M3097 2588 c-4 -14 -15 -29 -25 -31 -16 -4 -16 -5 1 -6 15 -1 17 -12
17 -82 0 -99 9 -119 55 -119 19 0 35 4 35 9 0 5 -8 7 -19 4 -37 -9 -52 23 -49
106 3 75 3 76 33 82 l30 7 -32 1 c-27 1 -32 5 -35 29 l-3 27 -8 -27z"/>
<path d="M1451 2556 c-13 -7 -30 -24 -37 -37 -28 -50 -9 -147 31 -163 25 -9
103 -7 109 3 3 5 -17 8 -45 8 -42 -2 -54 2 -70 22 -10 13 -19 32 -19 42 0 17
8 19 75 19 73 0 75 1 75 25 0 36 -19 71 -47 84 -30 14 -42 13 -72 -3z m79 -26
c11 -11 20 -29 20 -40 0 -18 -7 -20 -65 -20 -74 0 -83 13 -40 55 29 30 58 32
85 5z"/>
<path d="M1780 2557 c-36 -18 -64 -79 -55 -124 10 -54 45 -83 100 -83 25 0 45
4 45 9 0 5 -18 8 -39 7 -67 -1 -101 52 -80 127 11 40 52 63 94 53 14 -4 25 -2
25 3 0 8 -33 21 -55 21 -5 0 -21 -6 -35 -13z"/>
<path d="M1965 2563 c-44 -11 -39 -25 6 -18 52 8 79 -9 79 -51 0 -21 -4 -24
-41 -24 -41 0 -78 -14 -91 -34 -13 -19 -9 -54 8 -70 20 -21 83 -20 106 1 17
15 18 15 18 0 0 -10 5 -17 10 -17 6 0 10 35 10 84 0 65 -4 88 -17 104 -19 23
-56 33 -88 25z m85 -126 c0 -51 -58 -90 -100 -67 -22 12 -27 52 -7 68 12 10
45 18 85 21 17 1 22 -4 22 -22z"/>
<path d="M2300 2557 c-36 -18 -64 -79 -55 -124 10 -56 44 -83 104 -83 27 0 52
4 56 10 3 5 -14 8 -44 7 -55 -2 -86 17 -94 59 -4 24 -3 24 70 24 53 0 75 4 79
14 9 24 -23 85 -51 96 -33 12 -35 12 -65 -3z m72 -24 c8 -10 18 -28 21 -40 5
-22 2 -23 -59 -23 -57 0 -64 2 -64 20 0 49 71 78 102 43z"/>
<path d="M2903 2555 c-18 -8 -33 -10 -33 -5 0 6 -4 10 -10 10 -6 0 -10 -42
-10 -105 0 -123 16 -141 22 -24 3 70 6 83 27 100 28 23 64 24 85 3 12 -12 16
-36 16 -100 0 -49 4 -84 10 -84 6 0 10 35 10 85 0 78 -2 88 -25 110 -27 28
-46 30 -92 10z"/>
<path d="M3265 2563 c-44 -11 -39 -25 7 -18 42 6 48 5 63 -19 25 -38 14 -56
-37 -56 -58 0 -88 -22 -88 -64 0 -17 5 -37 12 -44 17 -17 79 -15 106 4 20 14
22 14 22 0 0 -9 5 -16 11 -16 18 0 8 176 -11 194 -18 17 -57 26 -85 19z m85
-117 c0 -56 -52 -97 -97 -77 -25 12 -31 52 -10 69 26 22 107 28 107 8z"/>
<path d="M3465 2558 c-11 -6 -23 -16 -27 -22 -13 -19 -9 -73 7 -86 12 -10 12
-16 4 -26 -6 -8 -9 -24 -5 -37 4 -16 0 -26 -14 -35 -20 -12 -26 -47 -12 -69
13 -21 65 -34 104 -28 38 7 78 43 78 71 0 31 -39 54 -91 54 -46 0 -50 2 -47
22 2 18 12 24 40 29 57 9 71 26 65 76 -4 38 -2 43 16 43 36 0 13 7 -43 13 -33
4 -63 2 -75 -5z m73 -20 c7 -7 12 -27 12 -45 0 -27 -5 -35 -25 -43 -16 -6 -34
-6 -50 0 -20 8 -25 16 -25 43 0 40 15 57 50 57 14 0 31 -5 38 -12z m32 -193
c10 -12 10 -21 2 -40 -13 -28 -70 -43 -111 -29 -32 12 -41 52 -15 71 25 18
108 17 124 -2z"/>
<path d="M3690 2557 c-36 -18 -64 -79 -55 -124 10 -56 44 -83 104 -83 27 0 52
4 56 10 3 5 -14 8 -44 7 -55 -2 -86 17 -94 59 -4 24 -3 24 70 24 53 0 75 4 79
14 9 24 -23 85 -51 96 -33 12 -35 12 -65 -3z m72 -24 c8 -10 18 -28 21 -40 5
-22 2 -23 -59 -23 -57 0 -64 2 -64 20 0 49 71 78 102 43z"/>
<path d="M588 2521 l-26 -39 32 -31 c43 -42 58 -40 17 3 l-32 33 25 31 c27 31
32 42 19 42 -5 -1 -20 -18 -35 -39z"/>
<path d="M2552 2548 c43 -122 75 -198 86 -198 6 0 12 2 12 4 0 3 18 50 40 106
21 56 34 100 27 97 -7 -2 -26 -40 -42 -85 -17 -44 -33 -84 -36 -87 -4 -3 -21
35 -39 85 -18 49 -37 90 -42 90 -6 0 -8 -6 -6 -12z"/>
<path d="M2760 2455 c0 -63 4 -105 10 -105 6 0 10 42 10 105 0 63 -4 105 -10
105 -6 0 -10 -42 -10 -105z"/>
<path d="M4370 2554 c0 -6 9 -23 20 -37 26 -32 25 -39 -5 -67 -14 -13 -23 -26
-20 -29 3 -2 21 10 39 28 30 29 32 35 21 50 -8 9 -23 27 -34 41 -11 14 -20 20
-21 14z"/>
<path d="M664 2495 c-4 -9 -2 -21 3 -26 7 -7 12 -3 16 10 6 25 -11 39 -19 16z"/>
<path d="M4313 2485 c0 -9 4 -14 9 -13 5 2 10 8 10 13 0 5 -5 11 -10 13 -5 1
-9 -4 -9 -13z"/>
<path d="M690 2438 c0 -15 3 -19 8 -11 6 9 18 4 45 -18 l37 -30 0 -140 0 -139
151 0 c97 0 148 4 144 10 -4 6 -63 10 -146 10 l-139 0 0 134 0 134 -42 36
c-50 42 -58 44 -58 14z"/>
<path d="M4243 2424 l-43 -36 0 -134 0 -134 -134 0 c-79 0 -137 -4 -141 -10
-4 -6 47 -10 144 -10 l151 0 0 139 0 139 43 41 c52 50 38 54 -20 5z"/>
<path d="M640 2404 c0 -3 11 -15 25 -26 25 -19 25 -20 25 -188 l0 -169 220 -3
c121 -2 220 0 220 5 0 4 -97 7 -215 7 l-215 0 0 168 c0 163 -1 169 -23 190
-23 22 -37 28 -37 16z"/>
<path d="M4317 2382 l-27 -28 0 -162 0 -162 -217 -3 -218 -2 228 -3 227 -2 0
167 c0 157 1 168 22 190 12 13 19 25 16 28 -2 3 -17 -8 -31 -23z"/>
<path d="M1095 2110 c3 -5 33 -10 66 -10 33 0 59 4 59 10 0 6 -29 10 -66 10
-41 0 -63 -4 -59 -10z"/>
<path d="M1245 2110 c-4 -7 118 -10 360 -10 242 0 364 3 360 10 -4 6 -135 10
-360 10 -225 0 -356 -4 -360 -10z"/>
<path d="M1995 2110 c4 -6 183 -10 505 -10 322 0 501 4 505 10 4 7 -167 10
-505 10 -338 0 -509 -3 -505 -10z"/>
<path d="M3025 2110 c-4 -7 120 -10 365 -10 245 0 369 3 365 10 -4 6 -137 10
-365 10 -228 0 -361 -4 -365 -10z"/>
<path d="M3775 2110 c3 -5 33 -10 65 -10 32 0 62 5 65 10 4 6 -20 10 -65 10
-45 0 -69 -4 -65 -10z"/>
<path d="M1147 2016 c-4 -10 -1 -13 8 -9 8 3 12 9 9 14 -7 12 -11 11 -17 -5z"/>
<path d="M1205 2021 c59 -15 133 -67 212 -150 13 -13 27 -21 31 -17 4 4 -5 17
-21 28 -20 15 -27 28 -27 53 0 19 5 37 11 41 6 3 9 15 6 25 -5 18 2 19 89 19
52 0 94 -3 94 -7 0 -4 -10 -17 -22 -31 -19 -20 -23 -35 -23 -92 0 -65 2 -71
35 -106 l35 -37 -35 7 c-18 3 -36 10 -40 14 -16 22 -94 80 -103 77 -7 -2 -25
-6 -41 -10 -27 -6 -27 -7 -11 -25 14 -15 22 -17 47 -8 25 9 34 7 56 -11 15
-11 38 -27 52 -35 29 -16 187 -28 196 -15 3 5 -14 9 -36 9 -50 0 -103 23 -124
54 -40 62 -27 149 28 191 38 29 74 32 116 10 79 -41 60 -156 -26 -158 -25 -1
-41 5 -50 18 -19 26 -18 30 12 43 14 7 22 17 19 22 -10 17 -39 11 -53 -10 -19
-32 8 -77 52 -86 75 -14 132 58 102 130 -8 20 -20 36 -25 36 -6 0 -11 4 -11
10 0 5 59 11 143 13 78 1 -51 3 -288 4 -236 0 -416 -2 -400 -6z m161 -17 c-3
-9 -6 -25 -6 -35 0 -19 -3 -18 -40 8 -22 15 -40 31 -40 36 0 4 21 7 46 7 38 0
45 -3 40 -16z"/>
<path d="M2288 2023 c116 -2 308 -2 425 0 116 1 21 2 -213 2 -234 0 -329 -1
-212 -2z"/>
<path d="M2940 2020 c0 -5 5 -10 11 -10 5 0 7 5 4 10 -3 6 -8 10 -11 10 -2 0
-4 -4 -4 -10z"/>
<path d="M3103 2023 c75 -2 137 -6 137 -9 0 -3 -10 -18 -21 -34 -27 -35 -27
-74 -2 -108 38 -52 108 -55 139 -6 21 31 6 74 -26 74 -26 0 -26 -30 0 -37 26
-7 25 -28 -2 -47 -33 -23 -56 -20 -90 14 -25 26 -29 36 -24 63 7 36 44 74 81
83 112 28 180 -134 96 -228 -23 -26 -37 -32 -84 -36 -85 -7 -59 -21 33 -18 73
3 84 6 133 40 48 33 57 36 82 26 23 -9 32 -8 44 5 14 14 14 17 1 25 -8 5 -24
10 -35 10 -15 0 -3 16 50 66 74 69 105 89 170 110 33 11 -30 12 -390 11 -236
-1 -368 -3 -292 -4z m473 -19 c-3 -9 1 -25 9 -37 25 -36 18 -52 -50 -118 -75
-72 -112 -99 -138 -99 -15 0 -13 6 12 38 50 63 50 152 1 197 -11 10 -20 22
-20 27 0 4 43 8 96 8 84 0 95 -2 90 -16z m109 -19 c-35 -30 -41 -32 -47 -17
-17 43 -10 52 40 52 l47 -1 -40 -34z"/>
<path d="M3830 2015 c0 -2 10 -10 23 -16 20 -11 21 -11 8 4 -13 16 -31 23 -31
12z"/>
<path d="M3909 1948 c37 -48 -6 -159 -66 -171 -44 -8 -95 14 -106 46 -17 52
12 107 58 107 18 0 24 -6 27 -25 3 -28 21 -35 26 -10 6 26 -18 45 -58 45 -84
0 -103 -111 -28 -164 31 -22 88 -20 118 4 32 25 65 25 90 0 24 -24 46 -26 54
-5 6 16 -30 55 -52 55 -7 0 -23 -5 -34 -11 -19 -10 -20 -9 -13 7 4 11 9 37 12
59 4 33 1 44 -18 60 -17 15 -20 15 -10 3z"/>
<path d="M1170 1937 c-31 -15 -42 -61 -13 -55 12 2 17 11 15 26 -3 18 1 22 26
22 40 0 62 -28 62 -78 0 -50 -26 -72 -86 -72 -68 0 -119 71 -101 141 5 17 3
18 -10 8 -14 -13 -14 -36 2 -86 7 -20 5 -22 -27 -17 -25 5 -38 1 -52 -15 -20
-22 -16 -51 7 -51 8 0 22 9 32 20 23 25 52 25 90 0 87 -57 187 17 155 114 -8
25 -20 37 -42 45 -17 6 -31 11 -32 11 -1 0 -12 -6 -26 -13z"/>
<path d="M2170 1941 c0 -4 30 -11 68 -14 37 -3 81 -13 97 -21 17 -9 35 -16 42
-16 19 0 118 -83 104 -88 -6 -2 -20 3 -29 11 -48 43 -258 111 -237 77 3 -5 18
-10 33 -10 44 0 222 -77 222 -96 0 -3 -12 -28 -26 -56 -16 -31 -22 -54 -16
-60 6 -6 14 7 21 34 7 24 21 54 32 68 l19 25 20 -25 c11 -14 27 -40 35 -59 9
-19 18 -32 21 -29 3 4 -6 29 -20 57 l-26 50 43 26 c51 29 151 65 183 65 13 0
26 5 29 10 8 12 11 12 -61 -1 -32 -6 -92 -28 -133 -50 -40 -22 -76 -37 -80
-33 -10 10 70 74 119 96 25 11 81 23 125 27 63 5 74 8 50 14 -62 15 -198 -24
-253 -72 -62 -55 -55 -53 -83 -27 -46 43 -141 85 -214 95 -86 13 -85 13 -85 2z"/>
<path d="M2075 1927 c-39 -16 -80 -43 -133 -89 -46 -39 -117 -78 -144 -78 -9
0 -21 -7 -28 -15 -10 -12 -4 -12 36 2 27 9 58 22 69 30 31 21 35 16 20 -28 -8
-23 -15 -70 -15 -105 l0 -64 -24 15 c-34 22 -81 16 -81 -10 0 -17 6 -20 45
-18 53 3 57 1 93 -55 16 -24 31 -41 34 -38 4 3 -1 14 -9 23 -58 69 -63 189
-12 282 40 74 128 139 194 144 17 1 30 5 30 10 0 10 -40 7 -75 -6z"/>
<path d="M2850 1931 c0 -6 8 -11 19 -11 32 0 105 -38 147 -77 49 -45 67 -78
84 -154 23 -102 -27 -210 -115 -250 -138 -63 -296 29 -281 164 4 34 12 54 28
67 25 21 92 27 103 10 8 -13 52 -13 60 0 3 6 3 19 0 30 -9 28 -97 28 -142 0
-99 -60 -81 -211 32 -281 22 -14 25 -19 12 -19 -18 0 -58 17 -67 29 -17 22
-72 51 -97 50 -26 -1 -26 -2 9 -13 21 -6 46 -18 55 -26 52 -44 68 -50 139 -50
39 0 93 7 120 15 67 20 94 19 121 -7 22 -21 24 -21 41 -4 16 16 16 18 -7 37
-13 10 -32 19 -42 19 -18 0 -17 4 8 43 39 61 52 69 97 61 42 -7 64 10 44 33
-14 17 -49 16 -74 -2 -21 -14 -22 -13 -26 58 -3 40 -13 85 -21 102 -9 16 -15
31 -13 32 2 2 25 -7 52 -21 27 -13 63 -27 79 -30 28 -6 29 -5 11 9 -11 8 -28
15 -38 15 -25 0 -107 48 -147 85 -55 52 -191 113 -191 86z"/>
<path d="M2100 1885 c-56 -18 -123 -82 -146 -141 -26 -67 -16 -177 20 -231 54
-80 148 -93 205 -27 40 45 40 83 2 126 -54 60 -141 32 -141 -47 0 -38 16 -55
52 -55 21 0 28 5 28 20 0 16 -7 20 -30 20 -25 0 -30 4 -30 24 0 55 65 72 112
29 27 -24 24 -82 -7 -116 -55 -58 -156 -24 -195 65 -62 144 39 326 183 328 23
0 36 4 32 10 -8 13 -30 12 -85 -5z"/>
<path d="M2805 1890 c-4 -6 8 -10 30 -10 82 0 171 -71 195 -156 18 -62 9 -167
-16 -201 -34 -46 -69 -66 -115 -66 -37 0 -47 5 -71 34 -44 53 -33 106 26 129
15 5 32 10 37 10 18 0 49 -41 49 -65 0 -22 -4 -25 -31 -23 -38 3 -49 -16 -19
-32 47 -25 81 56 44 108 -11 16 -25 22 -53 22 -85 0 -123 -95 -63 -160 59 -66
167 -42 212 47 62 125 14 287 -102 341 -54 25 -114 36 -123 22z"/>
<path d="M1370 1800 c0 -5 10 -15 23 -21 22 -12 22 -12 3 10 -21 23 -26 26
-26 11z"/>
<path d="M3604 1789 c-19 -22 -19 -22 4 -10 12 6 22 16 22 21 0 15 -5 12 -26
-11z"/>
<path d="M2132 1733 c-27 -5 -44 -34 -32 -53 7 -12 15 -12 43 -2 90 32 147 0
147 -83 0 -138 -151 -218 -284 -151 -38 19 -54 22 -84 15 -43 -9 -67 -36 -51
-56 16 -18 26 -16 46 7 18 21 57 26 95 11 13 -5 68 -12 124 -16 l101 -7 36 31
c19 17 52 38 74 45 36 14 37 15 9 15 -19 1 -45 -12 -78 -39 -30 -23 -61 -40
-76 -40 -24 0 -23 2 14 26 60 39 88 88 88 154 1 58 -12 85 -55 118 -26 20 -80
32 -117 25z"/>
<path d="M2578 1665 c-3 -3 -1 -22 5 -40 9 -29 7 -38 -7 -54 -13 -15 -15 -24
-8 -38 10 -16 12 -15 21 10 17 44 8 141 -11 122z"/>
<path d="M2417 1633 c-9 -24 1 -93 12 -93 15 0 21 13 12 24 -5 6 -11 29 -13
51 -3 34 -4 36 -11 18z"/>
<path d="M2449 1534 c-14 -17 -6 -29 29 -43 22 -9 35 -9 60 2 32 13 32 14 13
32 -25 21 -87 27 -102 9z"/>
<path d="M2395 1480 c-3 -5 4 -10 15 -10 32 0 80 -56 80 -92 0 -32 -47 -88
-74 -88 -28 0 -64 22 -75 47 -22 49 40 98 77 61 16 -16 15 -38 -2 -38 -20 0
-31 -19 -18 -32 15 -15 44 21 40 51 -6 47 -83 60 -110 18 -23 -37 6 -98 56
-117 31 -12 52 -5 89 28 27 26 27 26 42 5 8 -11 28 -26 44 -33 38 -15 77 2
104 47 15 27 16 36 6 55 -16 31 -28 38 -66 38 -23 0 -36 -6 -44 -21 -15 -29 3
-69 32 -69 27 0 20 24 -9 28 -25 4 -26 6 -12 33 21 38 90 14 90 -32 0 -28 -44
-69 -75 -69 -68 0 -102 104 -50 155 13 14 34 25 45 25 12 0 18 5 15 10 -11 18
-31 11 -65 -22 l-33 -33 -34 33 c-35 33 -57 40 -68 22z"/>
</g>
</svg>
